<?xml version="1.0" ?><svg data-name="Layer 1" id="Layer_1" viewBox="0 0 100 100" xmlns="http://www.w3.org/2000/svg"><defs><style>.cls-1{fill:#4d4d4d;}</style></defs><title/><path class="cls-1" d="M50,4.25A41.54684,41.54684,0,0,0,8.5,45.75v8.5a41.5,41.5,0,0,0,83,0v-8.5A41.54684,41.54684,0,0,0,50,4.25Zm0,6A35.37521,35.37521,0,1,1,14.50317,45.625,35.53863,35.53863,0,0,1,50,10.25Zm0,79.5A35.55587,35.55587,0,0,1,15.48621,62.5351a38.48012,38.48012,0,0,0,69.02759,0A35.55587,35.55587,0,0,1,50,89.75Z"/><path class="cls-1" d="M28.84143,57.96619a2.9183,2.9183,0,0,0,.00006,4.12726l5.065,5.06512a2.91849,2.91849,0,0,0,4.12732,0l5.51978-5.51978L50,55.19238l6.44641,6.44641,5.51978,5.51978a2.91849,2.91849,0,0,0,4.12732,0l5.065-5.06512a2.9183,2.9183,0,0,0,.00006-4.12726l-5.00745-5.00745L59.19238,46l6.44641-6.44641,5.51978-5.51978a2.91849,2.91849,0,0,0,0-4.12732l-5.06512-5.065a2.9183,2.9183,0,0,0-4.12726-.00006L56.9588,29.84882,50,36.80762l-6.9588-6.9588-5.00739-5.00739a2.9183,2.9183,0,0,0-4.12726.00006l-5.06512,5.065a2.91849,2.91849,0,0,0,0,4.12732l5.51978,5.51978L40.80762,46l-6.95874,6.95874Z"/></svg>